<svg width="300" height="100" viewBox="0 0 300 100" fill="none" xmlns="http://www.w3.org/2000/svg">
  <!-- Blue to purple gradient rectangle with $ symbol -->
  <rect x="10" y="10" width="80" height="80" rx="8" stroke="url(#paint0_linear)" stroke-width="4" fill="transparent"/>
  
  <!-- Dollar symbol -->
  <path d="M45 38V28H65V38H45Z" fill="#0088FF"/>
  <path d="M50 72V28H60V72H50Z" fill="#0088FF"/>
  
  <!-- Purple square -->
  <rect x="70" y="38" width="20" height="20" rx="3" fill="#7B3FF5"/>
  
  <!-- ArthaNet text -->
  <path d="M120 60L110 30H118L124 51L130 30H138L128 60H120Z" fill="#FFFFFF"/>
  <path d="M140 60V30H148V53H160V60H140Z" fill="#FFFFFF"/>
  <path d="M167 60V30H175V60H167Z" fill="#FFFFFF"/>
  <path d="M183 60V30H190V42H199V30H206V60H199V49H190V60H183Z" fill="#FFFFFF"/>
  <path d="M215 60L209 30H217L220 50L224 30H232L226 60H215Z" fill="#FFFFFF"/>
  <path d="M240 60V53L251 37H240V30H262V37L251 53H262V60H240Z" fill="#FFFFFF"/>
  <path d="M270 60V54H275V36H270V30H287V36H282V54H287V60H270Z" fill="#FFFFFF"/>
  
  <!-- Gradient definitions -->
  <defs>
    <linearGradient id="paint0_linear" x1="10" y1="10" x2="90" y2="90" gradientUnits="userSpaceOnUse">
      <stop offset="0" stop-color="#0088FF"/>
      <stop offset="1" stop-color="#7B3FF5"/>
    </linearGradient>
  </defs>
</svg>
